<svg width="120" height="80" viewBox="0 0 120 80" fill="none" xmlns="http://www.w3.org/2000/svg">
<rect x="1" y="1" width="118" height="78" rx="7" fill="white"/>
<rect x="1" y="1" width="118" height="78" rx="7" stroke="#E71F4D" stroke-width="2"/>
<g clip-path="url(#clip0_60_226)">
<path d="M49.4216 44.964L48.0989 49.9019L43.2643 50.0042C41.8195 47.3244 41 44.2583 41 41.0001C41 37.8495 41.7662 34.8783 43.1244 32.2622H43.1255L47.4296 33.0513L49.315 37.3296C48.9204 38.48 48.7053 39.715 48.7053 41.0001C48.7055 42.3948 48.9581 43.7312 49.4216 44.964Z" fill="#FBBB00"/>
<path d="M78.6681 37.4504C78.8863 38.5998 79 39.7868 79 40.9999C79 42.3602 78.857 43.687 78.5846 44.9669C77.6597 49.3223 75.2429 53.1254 71.8949 55.8168L71.8939 55.8157L66.4726 55.5391L65.7054 50.7494C67.9269 49.4466 69.663 47.4077 70.5775 44.9669H60.4177V37.4504H70.7258H78.6681Z" fill="#E71F4D"/>
<path d="M71.8938 55.8158L71.8949 55.8168C68.6388 58.434 64.5026 59.9999 60.0001 59.9999C52.7644 59.9999 46.4735 55.9557 43.2644 50.0041L49.4217 44.9639C51.0262 49.2461 55.1571 52.2945 60.0001 52.2945C62.0817 52.2945 64.0319 51.7318 65.7053 50.7494L71.8938 55.8158Z" fill="#28B446"/>
<path d="M72.1277 26.3742L65.9725 31.4133C64.2406 30.3308 62.1934 29.7054 60.0001 29.7054C55.0475 29.7054 50.8393 32.8936 49.3152 37.3294L43.1256 32.2621H43.1245C46.2867 26.1654 52.6569 22 60.0001 22C64.6102 22 68.8371 23.6422 72.1277 26.3742Z" fill="#F14336"/>
</g>
<defs>
<clipPath id="clip0_60_226">
<rect width="38" height="38" fill="white" transform="translate(41 22)"/>
</clipPath>
</defs>
</svg>
